<svg width="135" height="35" viewBox="0 0 135 35" fill="none" xmlns="http://www.w3.org/2000/svg">
<path d="M18.1725 13.4094C18.3338 12.9479 18.4215 12.4518 18.4215 11.9352C18.4215 11.9301 18.4215 11.9249 18.4215 11.9197L18.2929 12.6533L18.1644 13.387C18.1671 13.3945 18.1698 13.4019 18.1725 13.4094Z" fill="#E2DCC8"/>
<path d="M19.0554 13.1166C19.0554 13.1529 19.056 13.189 19.0572 13.2249L19.2903 11.8944C19.1388 12.2722 19.0554 12.6847 19.0554 13.1166Z" fill="#E2DCC8"/>
<path d="M24.186 25.7945H24.4611L24.4921 25.6176C24.3926 25.6804 24.2905 25.7394 24.186 25.7945Z" fill="#E2DCC8"/>
<path d="M17.5571 21.7844C17.5577 21.2453 17.6526 20.7282 17.8263 20.2488L17.5571 21.7844Z" fill="#E2DCC8"/>
<path d="M18.1489 13.4753C18.1569 13.4535 18.1648 13.4315 18.1725 13.4094C18.1698 13.402 18.167 13.3945 18.1644 13.387L18.1489 13.4753Z" fill="#E2DCC8"/>
<path fill-rule="evenodd" clip-rule="evenodd" d="M26.8337 11.9854C26.8298 12.15 26.8171 12.3125 26.7958 12.4723L26.7325 12.8339C26.69 13.0286 26.6349 13.2185 26.568 13.4027C26.6164 13.288 26.6588 13.17 26.6946 13.0493C26.7675 12.8041 26.8135 12.5473 26.8291 12.2824C26.8329 12.2152 26.8351 12.1475 26.8351 12.0793C26.8351 12.0479 26.8346 12.0166 26.8337 11.9854ZM23.4235 16.2185C23.0854 16.3004 22.7323 16.3437 22.369 16.3437C21.9337 16.3437 21.513 16.2815 21.1152 16.1654C21.4923 16.317 21.9041 16.4007 22.3353 16.4013L22.3402 16.4014L22.345 16.4013C22.7229 16.4008 23.0858 16.3365 23.4235 16.2185ZM19.0572 13.2249L19.2903 11.8944C19.1388 12.2722 19.0554 12.6847 19.0554 13.1166C19.0554 13.1529 19.056 13.189 19.0572 13.2249Z" fill="#E2DCC8"/>
<path fill-rule="evenodd" clip-rule="evenodd" d="M26.8351 12.0793C26.8351 12.0479 26.8346 12.0166 26.8337 11.9854C26.8298 12.15 26.8171 12.3125 26.7958 12.4723L26.7325 12.8339C26.69 13.0286 26.6349 13.2185 26.568 13.4027C26.6164 13.288 26.6588 13.17 26.6946 13.0493C26.7675 12.8041 26.8135 12.5473 26.8291 12.2824C26.8329 12.2152 26.8351 12.1475 26.8351 12.0793ZM23.4235 16.2185C23.0854 16.3004 22.7323 16.3437 22.369 16.3437C21.9337 16.3437 21.513 16.2815 21.1152 16.1654C21.4923 16.317 21.9041 16.4007 22.3353 16.4013L22.3402 16.4014L22.345 16.4013C22.7229 16.4008 23.0858 16.3365 23.4235 16.2185ZM19.0572 13.2249C19.056 13.189 19.0554 13.1529 19.0554 13.1166C19.0554 12.6847 19.1388 12.2722 19.2903 11.8944L19.0572 13.2249Z" fill="#E2DCC8"/>
<path fill-rule="evenodd" clip-rule="evenodd" d="M17.9516 2.39807C16.5619 2.39889 15.2168 2.59037 13.9411 2.94777C10.5953 3.88506 7.7264 5.96359 5.78072 8.73702C4.24179 10.9307 3.28042 13.5591 3.11747 16.4014C3.10109 16.6874 3.09277 16.9756 3.09277 17.2658C3.09277 20.4391 4.0869 23.3802 5.78072 25.7946C6.748 27.1735 7.94347 28.3804 9.31226 29.3609C10.7411 30.3844 12.3589 31.1609 14.1032 31.6283C14.3768 31.7017 14.6535 31.7674 14.9331 31.8251C15.2099 31.8822 15.4894 31.9319 15.7715 31.9736L16.8544 25.7946L17.3552 22.937L17.5571 21.7845C17.5577 21.2453 17.6526 20.7283 17.8262 20.2489C18.0734 19.5664 18.4802 18.9603 19.0014 18.4757C19.8089 17.725 20.8912 17.2658 22.0808 17.2658C23.198 17.2658 24.2206 17.6708 25.0097 18.3419C25.2452 18.5421 25.4598 18.766 25.65 19.0099C25.9474 19.391 26.1848 19.821 26.3485 20.2857C26.5142 20.7562 26.6046 21.2623 26.6046 21.7895C26.6046 22.8759 26.2214 23.8729 25.5833 24.6527C25.2745 25.0301 24.9059 25.3565 24.4921 25.6176L24.4611 25.7946H24.186H21.5679H21.5622H21.5565H19.9757H17.7188L16.6184 32.0738C17.0605 32.1134 17.5081 32.1335 17.9605 32.1335C19.9337 32.1335 21.8171 31.7491 23.5399 31.0511C23.8799 30.9134 24.2137 30.7635 24.5407 30.6019C26.7869 29.4914 28.7123 27.83 30.1403 25.7946C31.834 23.3802 32.8282 20.4391 32.8282 17.2658C32.8282 16.9756 32.8198 16.6874 32.8035 16.4014C32.6405 13.5591 31.6793 10.9307 30.1403 8.73702C29.7 8.10941 29.2125 7.51741 28.6828 6.96616C28.4293 6.70247 28.1665 6.44811 27.8943 6.20363C26.1605 4.64557 24.0583 3.48924 21.7343 2.88122C21.4604 2.80955 21.1833 2.7455 20.9035 2.68931C20.6265 2.63368 20.0643 2.54577 20.0643 2.54577L18.9793 8.73702L18.9278 9.03071L18.4215 11.9198L18.4215 11.9353C18.4215 12.4519 18.3338 12.948 18.1725 13.4095C18.1648 13.4315 18.1569 13.4535 18.1489 13.4754C17.9014 14.149 17.4963 14.7465 16.9782 15.223C16.1841 15.9535 15.1247 16.3999 13.9611 16.4014L13.9554 16.4014L13.9498 16.4014H11.5834L11.6913 15.7857L12.9265 8.73702H17.0726H18.1149L19.2166 2.45037C18.8054 2.41598 18.3895 2.39831 17.9694 2.39807H17.9516ZM19.8437 8.73702H20.7081H22.8084H24.0617C25.6102 9.02555 26.7898 10.3638 26.8337 11.9854C26.8346 12.0166 26.8351 12.048 26.8351 12.0794C26.8351 12.1476 26.8329 12.2153 26.8291 12.2825C26.8135 12.5474 26.7675 12.8041 26.6946 13.0493C26.6588 13.1701 26.6164 13.288 26.568 13.4027C26.062 14.7956 24.8826 15.8653 23.4235 16.2185C23.0858 16.3365 22.7229 16.4009 22.345 16.4014L22.3402 16.4014L22.3353 16.4014C21.9041 16.4008 21.4923 16.317 21.1152 16.1654C20.5036 15.9194 19.983 15.4947 19.6182 14.9559C19.2818 14.459 19.0779 13.8651 19.0572 13.2249C19.056 13.189 19.0554 13.1529 19.0554 13.1167C19.0554 12.6847 19.1388 12.2722 19.2903 11.8945L19.8437 8.73702ZM16.8464 20.9074C16.8308 21.0522 16.8057 21.1941 16.7719 21.3327L15.99 25.7946H15.1256H9.93723L10.6103 21.9541L11.2644 18.2217L11.4319 17.2658H13.5809C14.7465 17.2658 15.7704 17.873 16.3534 18.7884C16.6777 19.2975 16.8656 19.9021 16.8656 20.5505C16.8656 20.6711 16.8591 20.7902 16.8464 20.9074Z" fill="#E2DCC8"/>
<path fill-rule="evenodd" clip-rule="evenodd" d="M26.8351 12.0793C26.8351 12.0479 26.8346 12.0166 26.8337 11.9854C26.8298 12.15 26.8171 12.3125 26.7958 12.4723L26.7325 12.8339C26.69 13.0286 26.6349 13.2185 26.568 13.4027C26.6164 13.288 26.6588 13.17 26.6946 13.0493C26.7675 12.8041 26.8135 12.5473 26.8291 12.2824C26.8329 12.2152 26.8351 12.1475 26.8351 12.0793ZM23.4235 16.2185C23.0854 16.3004 22.7323 16.3437 22.369 16.3437C21.9337 16.3437 21.513 16.2815 21.1152 16.1654C21.4923 16.317 21.9041 16.4007 22.3353 16.4013L22.3402 16.4014L22.345 16.4013C22.7229 16.4008 23.0858 16.3365 23.4235 16.2185ZM19.0572 13.2249C19.056 13.189 19.0554 13.1529 19.0554 13.1166C19.0554 12.6847 19.1388 12.2722 19.2903 11.8944L19.0572 13.2249Z" fill="#E2DCC8"/>
<path d="M41.1733 18.7657V4.37762H46.9285C47.9544 4.37762 48.7837 4.58412 49.4165 4.99711C50.0493 5.40344 50.5122 5.91635 50.8053 6.53584C51.0984 7.15533 51.245 7.78148 51.245 8.41429C51.245 9.22029 51.0618 9.88974 50.6954 10.4226C50.3357 10.9555 49.8395 11.3119 49.2067 11.4917V10.9922C50.1059 11.1787 50.7787 11.595 51.225 12.2411C51.6779 12.8873 51.9044 13.61 51.9044 14.4093C51.9044 15.2686 51.7446 16.0247 51.4248 16.6775C51.1117 17.3303 50.6321 17.8432 49.986 18.2162C49.3399 18.5826 48.5272 18.7657 47.548 18.7657H41.1733ZM43.931 16.2079H47.2682C47.6346 16.2079 47.961 16.1313 48.2474 15.978C48.5339 15.8182 48.757 15.5984 48.9169 15.3186C49.0834 15.0322 49.1667 14.6958 49.1667 14.3094C49.1667 13.9697 49.0967 13.6666 48.9569 13.4002C48.817 13.1337 48.6038 12.9239 48.3174 12.7707C48.0376 12.6108 47.6879 12.5309 47.2682 12.5309H43.931V16.2079ZM43.931 9.99299H46.8886C47.195 9.99299 47.4681 9.9397 47.7079 9.83312C47.9477 9.72654 48.1375 9.56334 48.2774 9.34352C48.4173 9.11704 48.4872 8.82728 48.4872 8.47424C48.4872 8.0346 48.3507 7.66491 48.0776 7.36515C47.8045 7.0654 47.4081 6.91553 46.8886 6.91553H43.931V9.99299ZM59.9122 19.0655C58.8064 19.0655 57.8306 18.829 56.9846 18.3561C56.1453 17.8765 55.4858 17.2204 55.0062 16.3877C54.5333 15.5484 54.2968 14.5892 54.2968 13.5101C54.2968 12.3311 54.53 11.3052 54.9962 10.4326C55.4625 9.56001 56.1053 8.8839 56.9247 8.4043C57.744 7.91803 58.6865 7.6749 59.7523 7.6749C60.8847 7.6749 61.8473 7.94135 62.6399 8.47424C63.4326 9.00713 64.0188 9.75651 64.3985 10.7224C64.7782 11.6883 64.9114 12.824 64.7982 14.1296H62.1104V13.1304C62.1104 12.0313 61.9339 11.242 61.5808 10.7624C61.2344 10.2761 60.6649 10.033 59.8722 10.033C58.9463 10.033 58.2636 10.3161 57.8239 10.8823C57.3909 11.4418 57.1744 12.2711 57.1744 13.3702C57.1744 14.376 57.3909 15.1554 57.8239 15.7083C58.2636 16.2545 58.9064 16.5276 59.7523 16.5276C60.2852 16.5276 60.7415 16.411 61.1212 16.1779C61.5009 15.9447 61.7906 15.6084 61.9905 15.1687L64.7082 15.9481C64.3019 16.9339 63.6591 17.7 62.7798 18.2462C61.9072 18.7924 60.9513 19.0655 59.9122 19.0655ZM56.3351 14.1296V12.1112H63.4892V14.1296H56.3351ZM75.1146 18.7657V13.67C75.1146 13.4235 75.1013 13.1104 75.0747 12.7307C75.048 12.3444 74.9648 11.958 74.8249 11.5717C74.685 11.1853 74.4552 10.8623 74.1355 10.6025C73.8224 10.3427 73.3761 10.2128 72.7966 10.2128C72.5634 10.2128 72.3136 10.2494 72.0472 10.3227C71.7807 10.396 71.5309 10.5392 71.2978 10.7524C71.0647 10.9589 70.8715 11.2653 70.7183 11.6716C70.5717 12.0779 70.4985 12.6175 70.4985 13.2903L68.9397 12.5509C68.9397 11.6982 69.1129 10.8989 69.4593 10.1529C69.8057 9.4068 70.3253 8.80397 71.018 8.34435C71.7174 7.88473 72.5967 7.65491 73.6558 7.65491C74.5018 7.65491 75.1912 7.79813 75.7241 8.08456C76.257 8.37099 76.67 8.73403 76.9631 9.17366C77.2629 9.6133 77.476 10.0729 77.6026 10.5525C77.7292 11.0255 77.8058 11.4584 77.8324 11.8515C77.859 12.2445 77.8724 12.5309 77.8724 12.7107V18.7657H75.1146ZM67.7407 18.7657V7.97465H70.1587V11.5517H70.4985V18.7657H67.7407ZM94.4535 18.7657V12.391C94.4535 11.6783 94.2837 11.1254 93.944 10.7324C93.6109 10.3327 93.1479 10.1329 92.5551 10.1329C92.1754 10.1329 91.8457 10.2228 91.5659 10.4026C91.2861 10.5758 91.0663 10.8223 90.9065 11.142C90.7533 11.4551 90.6766 11.8181 90.6766 12.2311L89.5376 11.4718C89.5376 10.7324 89.7108 10.0796 90.0572 9.51338C90.4102 8.94718 90.8798 8.50755 91.466 8.19447C92.0588 7.87473 92.715 7.71487 93.4344 7.71487C94.6667 7.71487 95.5959 8.08123 96.2221 8.81396C96.8549 9.54003 97.1713 10.4926 97.1713 11.6716V18.7657H94.4535ZM81.4443 18.7657V7.97465H83.8423V11.5517H84.182V18.7657H81.4443ZM87.9589 18.7657V12.391C87.9589 11.6783 87.789 11.1254 87.4493 10.7324C87.1163 10.3327 86.6533 10.1329 86.0605 10.1329C85.4943 10.1329 85.038 10.3294 84.6916 10.7224C84.3519 11.1087 84.182 11.6117 84.182 12.2311L83.0429 11.4318C83.0429 10.7257 83.2195 10.0929 83.5725 9.53337C83.9256 8.97383 84.3985 8.53086 84.9913 8.20446C85.5908 7.87806 86.2603 7.71487 86.9997 7.71487C87.8456 7.71487 88.5384 7.89472 89.078 8.25442C89.6242 8.61412 90.0272 9.09373 90.287 9.69323C90.5468 10.2927 90.6766 10.9522 90.6766 11.6716V18.7657H87.9589ZM105.429 19.0655C104.344 19.0655 103.391 18.8224 102.572 18.3361C101.753 17.8498 101.113 17.1804 100.653 16.3278C100.2 15.4685 99.974 14.4826 99.974 13.3702C99.974 12.2445 100.207 11.2553 100.673 10.4026C101.14 9.54336 101.782 8.87391 102.602 8.3943C103.421 7.9147 104.364 7.6749 105.429 7.6749C106.515 7.6749 107.468 7.91803 108.287 8.4043C109.113 8.89056 109.756 9.56334 110.216 10.4226C110.675 11.2753 110.905 12.2578 110.905 13.3702C110.905 14.4893 110.672 15.4785 110.206 16.3378C109.746 17.1904 109.103 17.8598 108.277 18.3461C107.458 18.8257 106.509 19.0655 105.429 19.0655ZM105.429 16.5276C106.302 16.5276 106.952 16.2345 107.378 15.6483C107.811 15.0555 108.027 14.2961 108.027 13.3702C108.027 12.411 107.808 11.645 107.368 11.0721C106.935 10.4992 106.289 10.2128 105.429 10.2128C104.837 10.2128 104.35 10.346 103.971 10.6125C103.591 10.8789 103.308 11.2486 103.121 11.7216C102.942 12.1945 102.852 12.744 102.852 13.3702C102.852 14.3361 103.068 15.1054 103.501 15.6783C103.941 16.2445 104.584 16.5276 105.429 16.5276ZM114.101 18.7657V7.97465H116.499V10.6125L116.24 10.2728C116.379 9.89973 116.566 9.56001 116.799 9.2536C117.032 8.94718 117.319 8.69406 117.658 8.49422C117.918 8.33436 118.201 8.21112 118.508 8.12453C118.814 8.03127 119.131 7.97465 119.457 7.95467C119.783 7.92802 120.11 7.93468 120.436 7.97465V10.5126C120.136 10.4193 119.787 10.3893 119.387 10.4226C118.994 10.4493 118.638 10.5392 118.318 10.6924C117.998 10.839 117.728 11.0355 117.509 11.2819C117.289 11.5217 117.122 11.8082 117.009 12.1412C116.896 12.4676 116.839 12.8373 116.839 13.2503V18.7657H114.101ZM128.157 19.0655C127.051 19.0655 126.075 18.829 125.229 18.3561C124.39 17.8765 123.73 17.2204 123.251 16.3877C122.778 15.5484 122.541 14.5892 122.541 13.5101C122.541 12.3311 122.774 11.3052 123.241 10.4326C123.707 9.56001 124.35 8.8839 125.169 8.4043C125.988 7.91803 126.931 7.6749 127.997 7.6749C129.129 7.6749 130.092 7.94135 130.884 8.47424C131.677 9.00713 132.263 9.75651 132.643 10.7224C133.023 11.6883 133.156 12.824 133.043 14.1296H130.355V13.1304C130.355 12.0313 130.178 11.242 129.825 10.7624C129.479 10.2761 128.909 10.033 128.117 10.033C127.191 10.033 126.508 10.3161 126.068 10.8823C125.635 11.4418 125.419 12.2711 125.419 13.3702C125.419 14.376 125.635 15.1554 126.068 15.7083C126.508 16.2545 127.151 16.5276 127.997 16.5276C128.53 16.5276 128.986 16.411 129.366 16.1779C129.745 15.9447 130.035 15.6084 130.235 15.1687L132.953 15.9481C132.546 16.9339 131.904 17.7 131.024 18.2462C130.152 18.7924 129.196 19.0655 128.157 19.0655ZM124.58 14.1296V12.1112H131.734V14.1296H124.58Z" fill="#E2DCC8"/>
<path d="M42.4282 30.7657V25.7978H40.5138V25.0105H45.178V25.7978H43.2636V30.7657H42.4282ZM47.3317 30.8856C46.9027 30.8856 46.5257 30.7924 46.2006 30.6059C45.8782 30.4167 45.6264 30.1543 45.4453 29.8185C45.2667 29.4801 45.1775 29.0885 45.1775 28.6435C45.1775 28.1719 45.2654 27.7629 45.4413 27.4165C45.6198 27.0701 45.8676 26.8024 46.1846 26.6132C46.5017 26.424 46.8707 26.3294 47.2917 26.3294C47.7314 26.3294 48.1057 26.432 48.4148 26.6372C48.7239 26.8397 48.9544 27.1287 49.1062 27.5044C49.2608 27.8801 49.3221 28.3264 49.2901 28.8433H48.4548V28.5396C48.4494 28.0387 48.3535 27.6683 48.167 27.4285C47.9832 27.1887 47.7021 27.0688 47.3237 27.0688C46.9054 27.0688 46.591 27.2007 46.3805 27.4645C46.17 27.7283 46.0647 28.1093 46.0647 28.6075C46.0647 29.0818 46.17 29.4495 46.3805 29.7106C46.591 29.9691 46.8947 30.0983 47.2917 30.0983C47.5528 30.0983 47.778 30.0397 47.9672 29.9224C48.159 29.8025 48.3082 29.632 48.4148 29.4109L49.2341 29.6707C49.0663 30.057 48.8118 30.3568 48.4708 30.5699C48.1297 30.7804 47.75 30.8856 47.3317 30.8856ZM45.793 28.8433V28.1919H48.8744V28.8433H45.793ZM52.2731 30.8856C51.8308 30.8856 51.4551 30.7871 51.146 30.5899C50.8369 30.3927 50.5998 30.1223 50.4346 29.7786C50.272 29.4348 50.1894 29.0445 50.1868 28.6075C50.1894 28.1626 50.2747 27.7696 50.4426 27.4285C50.6104 27.0848 50.8502 26.8157 51.162 26.6212C51.4737 26.4267 51.8481 26.3294 52.285 26.3294C52.7567 26.3294 53.159 26.4466 53.4921 26.6811C53.8278 26.9156 54.0489 27.2367 54.1555 27.6443L53.3242 27.8841C53.2416 27.6417 53.1057 27.4538 52.9165 27.3206C52.73 27.1847 52.5155 27.1168 52.2731 27.1168C51.9986 27.1168 51.7735 27.182 51.5976 27.3126C51.4218 27.4405 51.2912 27.6163 51.2059 27.8402C51.1207 28.064 51.0767 28.3198 51.074 28.6075C51.0767 29.0525 51.178 29.4122 51.3778 29.6866C51.5803 29.9611 51.8787 30.0983 52.2731 30.0983C52.5422 30.0983 52.7593 30.037 52.9245 29.9144C53.0924 29.7892 53.2203 29.6107 53.3082 29.3789L54.1555 29.5787C54.0143 29.9997 53.7811 30.3234 53.4561 30.5499C53.131 30.7737 52.7367 30.8856 52.2731 30.8856ZM58.239 30.7657V28.6435C58.239 28.4756 58.2244 28.3038 58.195 28.1279C58.1684 27.9494 58.1151 27.7842 58.0352 27.6323C57.9579 27.4805 57.8473 27.3579 57.7035 27.2646C57.5622 27.1714 57.3771 27.1248 57.1479 27.1248C56.9987 27.1248 56.8575 27.1501 56.7243 27.2007C56.591 27.2486 56.4738 27.3273 56.3725 27.4365C56.274 27.5457 56.1954 27.6896 56.1367 27.8681C56.0808 28.0467 56.0528 28.2638 56.0528 28.5196L55.5332 28.3238C55.5332 27.9321 55.6065 27.587 55.7531 27.2886C55.8996 26.9875 56.1101 26.7531 56.3845 26.5852C56.659 26.4173 56.9907 26.3334 57.3797 26.3334C57.6781 26.3334 57.9286 26.3814 58.1311 26.4773C58.3336 26.5732 58.4975 26.6998 58.6227 26.857C58.7506 27.0115 58.8478 27.1807 58.9145 27.3646C58.9811 27.5484 59.0264 27.7283 59.0503 27.9041C59.0743 28.08 59.0863 28.2345 59.0863 28.3677V30.7657H58.239ZM55.2055 30.7657V25.0105H55.9529V28.1159H56.0528V30.7657H55.2055ZM63.3966 30.7657V28.6435C63.3966 28.4756 63.382 28.3038 63.3527 28.1279C63.326 27.9494 63.2727 27.7842 63.1928 27.6323C63.1155 27.4805 63.005 27.3579 62.8611 27.2646C62.7199 27.1714 62.5347 27.1248 62.3055 27.1248C62.1563 27.1248 62.0151 27.1501 61.8819 27.2007C61.7487 27.2486 61.6314 27.3273 61.5302 27.4365C61.4316 27.5457 61.353 27.6896 61.2944 27.8681C61.2384 28.0467 61.2104 28.2638 61.2104 28.5196L60.6909 28.3238C60.6909 27.9321 60.7641 27.587 60.9107 27.2886C61.0572 26.9875 61.2677 26.7531 61.5422 26.5852C61.8166 26.4173 62.1483 26.3334 62.5373 26.3334C62.8358 26.3334 63.0862 26.3814 63.2887 26.4773C63.4912 26.5732 63.6551 26.6998 63.7803 26.857C63.9082 27.0115 64.0055 27.1807 64.0721 27.3646C64.1387 27.5484 64.184 27.7283 64.208 27.9041C64.2319 28.08 64.2439 28.2345 64.2439 28.3677V30.7657H63.3966ZM60.3631 30.7657V26.4493H61.1105V27.6963H61.2104V30.7657H60.3631ZM67.3446 30.8856C66.9129 30.8856 66.5386 30.7884 66.2215 30.5939C65.9044 30.3994 65.6593 30.1316 65.4861 29.7906C65.3156 29.4468 65.2303 29.0512 65.2303 28.6035C65.2303 28.1532 65.3182 27.7576 65.4941 27.4165C65.6699 27.0728 65.9164 26.8063 66.2335 26.6172C66.5505 26.4253 66.9209 26.3294 67.3446 26.3294C67.7762 26.3294 68.1506 26.4267 68.4676 26.6212C68.7847 26.8157 69.0298 27.0835 69.203 27.4245C69.3762 27.7656 69.4628 28.1586 69.4628 28.6035C69.4628 29.0538 69.3749 29.4508 69.199 29.7945C69.0258 30.1356 68.7807 30.4034 68.4636 30.5979C68.1466 30.7897 67.7735 30.8856 67.3446 30.8856ZM67.3446 30.0983C67.7576 30.0983 68.0653 29.9597 68.2678 29.6826C68.473 29.4029 68.5755 29.0432 68.5755 28.6035C68.5755 28.1532 68.4716 27.7935 68.2638 27.5244C68.0586 27.2526 67.7522 27.1168 67.3446 27.1168C67.0648 27.1168 66.8343 27.1807 66.6531 27.3086C66.4719 27.4338 66.3374 27.6084 66.2495 27.8322C66.1615 28.0533 66.1176 28.3104 66.1176 28.6035C66.1176 29.0565 66.2215 29.4189 66.4293 29.6906C66.6371 29.9624 66.9422 30.0983 67.3446 30.0983ZM70.6608 30.7657V24.8906H71.4961V30.7657H70.6608ZM74.8106 30.8856C74.3789 30.8856 74.0046 30.7884 73.6875 30.5939C73.3704 30.3994 73.1253 30.1316 72.9521 29.7906C72.7816 29.4468 72.6963 29.0512 72.6963 28.6035C72.6963 28.1532 72.7843 27.7576 72.9601 27.4165C73.136 27.0728 73.3824 26.8063 73.6995 26.6172C74.0166 26.4253 74.3869 26.3294 74.8106 26.3294C75.2422 26.3294 75.6166 26.4267 75.9337 26.6212C76.2507 26.8157 76.4959 27.0835 76.6691 27.4245C76.8422 27.7656 76.9288 28.1586 76.9288 28.6035C76.9288 29.0538 76.8409 29.4508 76.6651 29.7945C76.4919 30.1356 76.2467 30.4034 75.9297 30.5979C75.6126 30.7897 75.2396 30.8856 74.8106 30.8856ZM74.8106 30.0983C75.2236 30.0983 75.5313 29.9597 75.7338 29.6826C75.939 29.4029 76.0416 29.0432 76.0416 28.6035C76.0416 28.1532 75.9377 27.7935 75.7298 27.5244C75.5247 27.2526 75.2182 27.1168 74.8106 27.1168C74.5308 27.1168 74.3003 27.1807 74.1192 27.3086C73.938 27.4338 73.8034 27.6084 73.7155 27.8322C73.6276 28.0533 73.5836 28.3104 73.5836 28.6035C73.5836 29.0565 73.6875 29.4189 73.8953 29.6906C74.1032 29.9624 74.4083 30.0983 74.8106 30.0983ZM79.8254 32.8041C79.5936 32.8041 79.3685 32.7681 79.15 32.6962C78.9342 32.6242 78.737 32.5176 78.5585 32.3764C78.38 32.2379 78.2321 32.066 78.1149 31.8608L78.8862 31.4692C78.9795 31.653 79.1127 31.7876 79.2859 31.8728C79.4591 31.9581 79.6416 32.0007 79.8334 32.0007C80.0706 32.0007 80.2731 31.9581 80.4409 31.8728C80.6088 31.7902 80.7354 31.665 80.8206 31.4971C80.9086 31.3293 80.9512 31.1215 80.9485 30.8737V29.6667H81.0484V26.4493H81.7878V30.8817C81.7878 30.9962 81.7838 31.1055 81.7758 31.2094C81.7678 31.3133 81.7532 31.4172 81.7319 31.5211C81.6706 31.8116 81.5534 32.0514 81.3802 32.2405C81.2096 32.4297 80.9911 32.5709 80.7247 32.6642C80.4609 32.7574 80.1612 32.8041 79.8254 32.8041ZM79.7615 30.8856C79.3592 30.8856 79.0114 30.7857 78.7184 30.5859C78.4279 30.3861 78.2028 30.1143 78.0429 29.7706C77.8857 29.4242 77.8071 29.0352 77.8071 28.6035C77.8071 28.1692 77.887 27.7815 78.0469 27.4405C78.2068 27.0968 78.4333 26.8263 78.7264 26.6292C79.0221 26.4293 79.3725 26.3294 79.7775 26.3294C80.1851 26.3294 80.5275 26.4293 80.8046 26.6292C81.0844 26.8263 81.2949 27.0968 81.4361 27.4405C81.58 27.7842 81.6519 28.1719 81.6519 28.6035C81.6519 29.0352 81.58 29.4229 81.4361 29.7666C81.2922 30.1103 81.0804 30.3834 80.8006 30.5859C80.5209 30.7857 80.1745 30.8856 79.7615 30.8856ZM79.8774 30.1303C80.1518 30.1303 80.3757 30.065 80.5488 29.9344C80.722 29.8039 80.8486 29.624 80.9285 29.3949C81.0085 29.1657 81.0484 28.902 81.0484 28.6035C81.0484 28.3051 81.0071 28.0413 80.9245 27.8122C80.8446 27.583 80.7194 27.4045 80.5488 27.2766C80.381 27.1487 80.1665 27.0848 79.9054 27.0848C79.6283 27.0848 79.4005 27.1527 79.2219 27.2886C79.0434 27.4245 78.9102 27.607 78.8223 27.8362C78.737 28.0653 78.6944 28.3211 78.6944 28.6035C78.6944 28.8886 78.737 29.1471 78.8223 29.3789C78.9102 29.608 79.0408 29.7906 79.2139 29.9264C79.3898 30.0623 79.611 30.1303 79.8774 30.1303ZM83.2298 25.7419V24.9306H84.0651V25.7419H83.2298ZM83.2298 30.7657V26.4493H84.0651V30.7657H83.2298ZM87.4196 30.8856C86.9906 30.8856 86.6136 30.7924 86.2885 30.6059C85.9661 30.4167 85.7143 30.1543 85.5331 29.8185C85.3546 29.4801 85.2653 29.0885 85.2653 28.6435C85.2653 28.1719 85.3533 27.7629 85.5291 27.4165C85.7076 27.0701 85.9554 26.8024 86.2725 26.6132C86.5896 26.424 86.9586 26.3294 87.3796 26.3294C87.8192 26.3294 88.1936 26.432 88.5027 26.6372C88.8117 26.8397 89.0422 27.1287 89.1941 27.5044C89.3486 27.8801 89.4099 28.3264 89.3779 28.8433H88.5426V28.5396C88.5373 28.0387 88.4414 27.6683 88.2549 27.4285C88.071 27.1887 87.7899 27.0688 87.4116 27.0688C86.9932 27.0688 86.6788 27.2007 86.4683 27.4645C86.2578 27.7283 86.1526 28.1093 86.1526 28.6075C86.1526 29.0818 86.2578 29.4495 86.4683 29.7106C86.6788 29.9691 86.9826 30.0983 87.3796 30.0983C87.6407 30.0983 87.8659 30.0397 88.055 29.9224C88.2469 29.8025 88.3961 29.632 88.5027 29.4109L89.322 29.6707C89.1541 30.057 88.8997 30.3568 88.5586 30.5699C88.2176 30.7804 87.8379 30.8856 87.4196 30.8856ZM85.8808 28.8433V28.1919H88.9623V28.8433H85.8808ZM92.1651 30.8817C91.6402 30.8817 91.2125 30.7657 90.8821 30.5339C90.5517 30.3021 90.3492 29.9757 90.2746 29.5547L91.1299 29.4229C91.1832 29.6467 91.3058 29.8239 91.4976 29.9544C91.6921 30.0823 91.9333 30.1463 92.221 30.1463C92.4822 30.1463 92.686 30.093 92.8325 29.9864C92.9817 29.8798 93.0563 29.7333 93.0563 29.5468C93.0563 29.4375 93.0297 29.3496 92.9764 29.283C92.9258 29.2137 92.8179 29.1484 92.6527 29.0871C92.4875 29.0258 92.2357 28.9499 91.8973 28.8593C91.5269 28.7634 91.2325 28.6608 91.014 28.5516C90.7982 28.4397 90.6437 28.3104 90.5504 28.1639C90.4598 28.0147 90.4145 27.8348 90.4145 27.6243C90.4145 27.3632 90.4838 27.1354 90.6224 26.9409C90.7609 26.7464 90.9554 26.5959 91.2059 26.4893C91.459 26.3827 91.7548 26.3294 92.0931 26.3294C92.4235 26.3294 92.718 26.3814 92.9764 26.4853C93.2349 26.5892 93.444 26.7371 93.6039 26.9289C93.7638 27.1181 93.8597 27.3406 93.8917 27.5964L93.0364 27.7522C93.0071 27.5444 92.9098 27.3805 92.7446 27.2606C92.5794 27.1407 92.3649 27.0755 92.1011 27.0648C91.848 27.0541 91.6428 27.0968 91.4856 27.1927C91.3284 27.286 91.2498 27.4152 91.2498 27.5804C91.2498 27.6763 91.2791 27.7576 91.3378 27.8242C91.399 27.8908 91.5163 27.9547 91.6895 28.016C91.8627 28.0773 92.1185 28.1506 92.4568 28.2358C92.8192 28.3291 93.107 28.433 93.3201 28.5476C93.5333 28.6595 93.6852 28.794 93.7757 28.9512C93.869 29.1058 93.9156 29.2936 93.9156 29.5148C93.9156 29.9411 93.7598 30.2755 93.448 30.518C93.1389 30.7604 92.7113 30.8817 92.1651 30.8817Z" fill="#E2DCC8"/>
</svg>
