<svg width="89" height="28" viewBox="0 0 89 28" fill="none" xmlns="http://www.w3.org/2000/svg">
<g clip-path="url(#clip0_806_574259)">
<path fill-rule="evenodd" clip-rule="evenodd" d="M0.225983 1.12C0.225983 0.501441 0.727424 0 1.34598 0H7.22598H14.226H20.7547C21.0561 0 21.3448 0.121481 21.5555 0.336988L24.306 3.15L27.8908 6.67078C28.1052 6.88137 28.226 7.16933 28.226 7.46984V14V21V26.88C28.226 27.4986 27.7246 28 27.106 28H22.346C21.7274 28 21.226 27.4986 21.226 26.88V21V14V8.12C21.226 7.50141 20.7246 7 20.106 7H14.226H8.34598C7.72739 7 7.22598 7.50141 7.22598 8.12V12.88C7.22598 13.4986 7.72739 14 8.34598 14H13.106C13.7246 14 14.226 14.5014 14.226 15.12V19.88C14.226 20.4986 13.7246 21 13.106 21H8.34598C7.72739 21 7.22598 21.5014 7.22598 22.12V26.88C7.22598 27.4986 6.72454 28 6.10598 28H1.34598C0.727423 28 0.225983 27.4986 0.225983 26.88V21V14V7V1.12Z" fill="#E2DCC8"/>
</g>
<g clip-path="url(#clip1_806_574259)">
<path d="M33.7095 28C33.3963 28 33.2397 27.8434 33.2397 27.5303V3.42331C33.2397 3.11016 33.3963 2.95358 33.7095 2.95358H46.5803C46.8934 2.95358 47.05 3.11016 47.05 3.42331V7.48185C47.05 7.79501 46.8934 7.9516 46.5803 7.9516H39.4967V14.2273H45.6408C45.954 14.2273 46.1106 14.3839 46.1106 14.697V18.7556C46.1106 19.0687 45.954 19.2253 45.6408 19.2253H39.4967V27.5303C39.4967 27.8434 39.3401 28 39.0269 28H33.7095ZM50.5173 28C50.2042 28 50.0476 27.8434 50.0476 27.5303V7.80128C50.0476 7.48812 50.2042 7.33154 50.5173 7.33154H55.5153C55.8284 7.33154 55.9851 7.48812 55.9851 7.80128V27.5303C55.9851 27.8434 55.8284 28 55.5153 28H50.5173ZM50.4233 5.77201C50.1729 5.77201 50.0476 5.64674 50.0476 5.39622V3.00995C50.0476 2.75942 50.1729 2.63416 50.4233 2.63416H55.6468C55.8723 2.63416 55.9851 2.75942 55.9851 3.00995V5.39622C55.9851 5.64674 55.8723 5.77201 55.6468 5.77201H50.4233ZM60.8295 28C60.5164 28 60.3598 27.8434 60.3598 27.5303V7.80128C60.3598 7.48812 60.5164 7.33154 60.8295 7.33154H70.8819C71.1701 7.33154 71.4205 7.43801 71.6336 7.65096L75.3914 11.4089C75.6043 11.6093 75.7108 11.8598 75.7108 12.1604V27.5303C75.7108 27.8434 75.5543 28 75.2411 28H70.2243C69.9111 28 69.7546 27.8434 69.7546 27.5303V12.9121C69.7546 12.3233 69.4602 12.0289 68.8715 12.0289H66.3161V27.5303C66.3161 27.8434 66.1595 28 65.8463 28H60.8295ZM84.4251 28C84.137 28 83.8865 27.8936 83.6735 27.6806L80.5356 24.5615C80.3352 24.3486 80.235 24.098 80.235 23.81V11.7095H79.4459C79.1327 11.7095 78.9761 11.5529 78.9761 11.2398V7.80128C78.9761 7.48812 79.1327 7.33154 79.4459 7.33154H80.235V4.98285C80.235 4.66969 80.3916 4.51311 80.7047 4.51311H85.7028C86.0159 4.51311 86.1725 4.66969 86.1725 4.98285V7.33154H87.995C88.3083 7.33154 88.4648 7.48812 88.4648 7.80128V11.2398C88.4648 11.5529 88.3083 11.7095 87.995 11.7095H86.1725V21.7431C86.1725 21.9812 86.2477 22.1752 86.398 22.3256L88.2394 24.1858C88.3646 24.2985 88.4272 24.4864 88.4272 24.7495V27.5303C88.4272 27.8434 88.2707 28 87.9575 28H84.4251Z" fill="#E2DCC8"/>
</g>
<defs>
<clipPath id="clip0_806_574259">
<rect width="28" height="28" fill="white" transform="translate(0.225983)"/>
</clipPath>
<clipPath id="clip1_806_574259">
<rect width="55.312" height="25.4381" fill="white" transform="translate(33.205 2.56189)"/>
</clipPath>
</defs>
</svg>
